# xmcd
#
# Track frame offsets: 
#        150
#        19392
#        36385
#        55785
#        79021
#        98582
#        117447
#        135266
#        153176
#        172591
#        192864
#        208837
#        228687
#        245852
#
# Disc length: 3542 seconds
#
# Revision: 0
# Processed by: cddbd v1.5.2PL0 Copyright (c) Steve Scherf et al.
# Submitted via: ExactAudioCopy v0.99pb5
#
DISCID=b50dd40e
DTITLE=James LaBrie - Static Impulse digipack
DYEAR=2010
DGENRE=Metal
TTITLE0=One more time
TTITLE1=Jekyll or Hyde
TTITLE2=Mislead
TTITLE3=Euphoric
TTITLE4=Over the edge
TTITLE5=I need you
TTITLE6=Who you think I am
TTITLE7=I tried
TTITLE8=Just watch me
TTITLE9=This is war
TTITLE10=Superstar
TTITLE11=Coming home
TTITLE12=Jekyll or Hyde (demo)
TTITLE13=Coming home (alternate mix)
EXTD=
EXTT0=
EXTT1=
EXTT2=
EXTT3=
EXTT4=
EXTT5=
EXTT6=
EXTT7=
EXTT8=
EXTT9=
EXTT10=
EXTT11=
EXTT12=
EXTT13=
PLAYORDER=
